<?xml version="1.0" encoding="utf-8"?>
<!-- Generator: Adobe Illustrator 16.0.0, SVG Export Plug-In . SVG Version: 6.00 Build 0)  -->
<!DOCTYPE svg PUBLIC "-//W3C//DTD SVG 1.1//EN" "http://www.w3.org/Graphics/SVG/1.1/DTD/svg11.dtd">
<svg version="1.1" id="Layer_1" xmlns="http://www.w3.org/2000/svg" xmlns:xlink="http://www.w3.org/1999/xlink" x="0px" y="0px"
	 width="80px" height="80px" viewBox="0 0 80 80" enable-background="new 0 0 80 80" xml:space="preserve">
<g>
	<g>
		<path fill="#FFFFFF" d="M77.957,64.89H69.9v-9.005c0-0.704-0.571-1.275-1.274-1.275H58.008v-7.221h8.057
			c0.702,0,1.274-0.569,1.274-1.273V34.903c0-0.704-0.572-1.274-1.274-1.274h-8.057v-7.56c0-0.704-0.57-1.274-1.274-1.274h-15.46
			v-7.306h3.831c0.703,0,1.274-0.57,1.274-1.274s-0.571-1.274-1.274-1.274H25.984V3.897h28.032v11.043h-3.661
			c-0.703,0-1.273,0.57-1.273,1.274c0,0.704,0.57,1.274,1.273,1.274h4.935c0.704,0,1.275-0.57,1.275-1.274V2.624
			c0-0.704-0.571-1.274-1.275-1.274h-30.58c-0.704,0-1.274,0.57-1.274,1.274v13.591c0,0.704,0.57,1.274,1.274,1.274h14.016v7.305
			h-16.25c-0.704,0-1.274,0.571-1.274,1.274v7.56h-8.056c-0.704,0-1.274,0.57-1.274,1.274v11.213c0,0.704,0.57,1.274,1.274,1.274
			h8.056v7.219h-9.828c-0.704,0-1.274,0.572-1.274,1.276v9.004H2.043c-0.704,0-1.274,0.569-1.274,1.273v11.213
			c0,0.704,0.57,1.274,1.274,1.274h18.66c0.704,0,1.274-0.57,1.274-1.274V66.163c0-0.704-0.57-1.273-1.274-1.273h-8.056v-7.73
			h25.684v7.73h-8.056c-0.704,0-1.275,0.569-1.275,1.273v11.213c0,0.704,0.571,1.274,1.275,1.274H40c0.704,0,1.274-0.57,1.274-1.274
			s-0.57-1.274-1.274-1.274h-8.451v-8.664h16.112v8.664H45.25c-0.704,0-1.273,0.57-1.273,1.274s0.569,1.274,1.273,1.274h3.685
			c0.704,0,1.273-0.57,1.273-1.274V66.163c0-0.704-0.569-1.273-1.273-1.273h-8.056v-7.73h26.473v7.73h-8.056
			c-0.703,0-1.274,0.569-1.274,1.273v11.213c0,0.704,0.571,1.274,1.274,1.274h18.66c0.704,0,1.274-0.57,1.274-1.274V66.163
			C79.23,65.459,78.661,64.89,77.957,64.89z M19.429,67.438v8.664H3.317v-8.664H19.429z M64.789,36.177v8.665H48.678v-8.665H64.789z
			 M55.46,54.609H23.75v-7.221h0.658c0.704,0,1.274-0.569,1.274-1.273s-0.57-1.273-1.274-1.273h-9.988v-8.665h16.112v8.665h-0.873
			c-0.704,0-1.274,0.569-1.274,1.273s0.571,1.273,1.274,1.273h2.146c0.704,0,1.274-0.569,1.274-1.273V34.903
			c0-0.704-0.57-1.275-1.274-1.275H23.75v-6.285h31.71v6.285h-8.056c-0.704,0-1.275,0.571-1.275,1.275v11.212
			c0,0.704,0.571,1.273,1.275,1.273h8.056V54.609L55.46,54.609z M60.57,76.102v-8.664h16.11v8.664H60.57z"/>
	</g>
</g>
</svg>
