<?xml version="1.0" encoding="utf-8"?>
<!-- Generator: Adobe Illustrator 16.0.0, SVG Export Plug-In . SVG Version: 6.00 Build 0)  -->
<!DOCTYPE svg PUBLIC "-//W3C//DTD SVG 1.1//EN" "http://www.w3.org/Graphics/SVG/1.1/DTD/svg11.dtd">
<svg version="1.1" id="Layer_1" xmlns="http://www.w3.org/2000/svg" xmlns:xlink="http://www.w3.org/1999/xlink" x="0px" y="0px"
	 width="90px" height="60.487px" viewBox="0 0 90 60.487" enable-background="new 0 0 90 60.487" xml:space="preserve">
<path fill="#FFFFFF" d="M2.409,11.247h1.222c0.482,0,0.899,0.089,1.252,0.267c0.752,0.379,1.219,0.97,1.401,1.771
	c0.188,0.866,0.282,1.914,0.282,3.141c0,2.105-0.22,3.497-0.661,4.172c-0.511,0.79-1.269,1.184-2.274,1.184H2.409V11.247z
	 M3.799,22.561c1.31,0,2.373-0.274,3.187-0.824c0.69-0.466,1.226-1.159,1.607-2.078c0.38-0.918,0.571-1.977,0.571-3.176
	c0-1.004-0.143-1.925-0.429-2.764c-0.287-0.839-0.683-1.495-1.191-1.967c-0.903-0.856-2.115-1.284-3.638-1.284H0v12.093H3.799z"/>
<path fill="#FFFFFF" d="M19.971,13.396v9.159h-2.173V20.89c-0.46,0.757-0.914,1.257-1.362,1.499
	c-0.431,0.236-0.943,0.355-1.539,0.355c-0.708,0-1.26-0.168-1.655-0.505c-0.395-0.325-0.593-0.94-0.593-1.845v-6.767
	c0.736-0.053,1.46-0.13,2.173-0.23v7.042c0,0.528,0.068,0.875,0.204,1.039c0.166,0.2,0.417,0.299,0.753,0.299
	c0.561,0,1.024-0.271,1.391-0.813c0.419-0.63,0.628-1.442,0.628-2.438v-4.898C18.525,13.573,19.25,13.497,19.971,13.396z"/>
<path fill="#FFFFFF" d="M31.192,22.561h-2.15v-6.849c0-0.333-0.039-0.608-0.116-0.828c-0.114-0.314-0.394-0.472-0.842-0.472
	c-0.514,0-0.967,0.275-1.361,0.826c-0.197,0.284-0.36,0.604-0.488,0.958s-0.192,0.669-0.192,0.941v5.424H23.87v-8.955
	c0.563,0,0.932-0.012,1.108-0.036c0.169-0.012,0.525-0.068,1.064-0.168v1.938c0.386-0.588,0.739-1.004,1.06-1.248
	c0.6-0.463,1.25-0.696,1.952-0.696c0.784,0,1.372,0.268,1.764,0.802c0.25,0.345,0.375,0.793,0.375,1.346V22.561z"/>
<path fill="#FFFFFF" d="M38.577,13.662v0.732h-1.181v6.782c0,0.47,0.145,0.705,0.435,0.705c0.225,0,0.349-0.152,0.373-0.457
	l0.612,0.044c-0.094,0.43-0.271,0.727-0.53,0.892c-0.306,0.201-0.703,0.301-1.192,0.301c-0.677,0-1.171-0.177-1.483-0.53
	c-0.259-0.301-0.389-0.687-0.389-1.158v-6.579h-0.921v-0.732h0.921v-1.542c0.557-0.177,0.918-0.307,1.082-0.39
	c0.182-0.071,0.545-0.272,1.091-0.603v2.534H38.577z"/>
<path fill="#FFFFFF" d="M41.823,22.569V10.488c0.733-0.012,1.458-0.074,2.173-0.186v5.268c0.32-0.659,0.643-1.125,0.97-1.399
	c0.593-0.511,1.269-0.767,2.027-0.767c0.718,0,1.286,0.226,1.707,0.678c0.297,0.321,0.445,0.764,0.445,1.329v7.158h-2.149v-6.972
	c0-0.366-0.063-0.63-0.188-0.792c-0.19-0.24-0.423-0.36-0.697-0.36c-0.576,0-1.08,0.386-1.508,1.158
	c-0.172,0.315-0.317,0.656-0.433,1.024s-0.174,0.677-0.174,0.926v5.017H41.823z"/>
<path fill="#FFFFFF" d="M57.577,14.987c0.214,0.675,0.32,1.72,0.32,3.134c0,1.749-0.173,2.902-0.517,3.459
	c-0.262,0.417-0.591,0.625-0.987,0.625c-0.256,0-0.49-0.097-0.704-0.291c-0.214-0.193-0.371-0.446-0.472-0.757
	c-0.214-0.692-0.32-1.72-0.32-3.082c0-1.79,0.172-2.961,0.517-3.513c0.261-0.417,0.581-0.625,0.962-0.625
	C56.95,13.939,57.352,14.289,57.577,14.987z M53.575,14.608c-0.661,0.797-0.991,1.959-0.991,3.486c0,1.493,0.33,2.64,0.991,3.442
	c0.667,0.809,1.606,1.212,2.818,1.212c0.578,0,1.114-0.106,1.607-0.318s0.899-0.51,1.219-0.894c0.661-0.802,0.993-1.956,0.993-3.46
	c0-1.534-0.332-2.69-0.993-3.469c-0.325-0.383-0.731-0.681-1.219-0.894s-1.005-0.319-1.555-0.319
	C55.206,13.396,54.248,13.8,53.575,14.608z"/>
<path fill="#FFFFFF" d="M68.914,16.579h-1.62c0.091-0.356,0.152-0.592,0.187-0.708c0.096-0.362,0.144-0.659,0.144-0.893
	c0-0.151-0.048-0.277-0.145-0.376s-0.219-0.149-0.364-0.149c-0.317,0-0.599,0.258-0.844,0.772c-0.13,0.275-0.238,0.602-0.329,0.979
	c-0.091,0.377-0.137,0.701-0.137,0.97v5.381h-2.173v-8.928c0.169,0,0.293,0,0.369,0c0.517,0,1.117-0.077,1.804-0.23v1.896
	c0.249-0.57,0.493-0.979,0.736-1.226c0.426-0.435,0.894-0.652,1.401-0.652c0.255,0,0.487,0.069,0.696,0.207
	c0.21,0.138,0.366,0.322,0.466,0.551c0.083,0.183,0.124,0.397,0.124,0.644C69.229,15.239,69.124,15.827,68.914,16.579z"/>
<path fill="#FFFFFF" d="M77.149,15.351c0.177,0.538,0.267,1.379,0.267,2.524c0,1.234-0.06,2.12-0.178,2.657
	c-0.207,0.974-0.668,1.461-1.383,1.461c-0.556,0-0.976-0.307-1.26-0.921c-0.1-0.236-0.171-0.538-0.212-0.904
	c-0.042-0.366-0.063-0.918-0.063-1.656c0-1.104,0.032-1.863,0.098-2.276c0.095-0.584,0.283-1.057,0.567-1.417
	c0.289-0.366,0.603-0.549,0.939-0.549C76.493,14.27,76.901,14.63,77.149,15.351z M74.345,25.583v-3.978
	c0.267,0.368,0.487,0.62,0.665,0.756c0.378,0.291,0.904,0.436,1.577,0.436c0.916,0,1.654-0.378,2.216-1.135
	c0.603-0.816,0.904-1.989,0.904-3.521c0-1.424-0.226-2.515-0.674-3.272c-0.271-0.461-0.612-0.821-1.02-1.082
	s-0.839-0.391-1.293-0.391c-0.563,0-1.085,0.203-1.569,0.607c-0.271,0.22-0.54,0.598-0.807,1.133v-1.735
	c-0.537,0.106-0.891,0.168-1.061,0.186c-0.175,0.024-0.546,0.039-1.112,0.044v11.951H74.345z"/>
<path fill="#FFFFFF" d="M85.096,16.451c0.064-0.765,0.186-1.316,0.363-1.655c0.277-0.54,0.638-0.809,1.08-0.809
	c0.674,0,1.093,0.545,1.258,1.636c0.077,0.54,0.121,1.184,0.133,1.93h-2.896C85.057,17.008,85.078,16.64,85.096,16.451z
	 M89.049,20.197c0,0.551-0.174,1.019-0.522,1.406s-0.801,0.58-1.356,0.58c-0.964,0-1.59-0.457-1.879-1.372
	c-0.148-0.475-0.237-1.324-0.266-2.549h4.871c-0.006-1.215-0.118-2.125-0.336-2.73c-0.52-1.423-1.522-2.135-3.01-2.135
	c-1.056,0-1.952,0.422-2.689,1.266c-0.761,0.861-1.142,2.085-1.142,3.672c0,1.145,0.224,2.064,0.673,2.761
	c0.336,0.525,0.796,0.932,1.381,1.221c0.583,0.289,1.241,0.434,1.973,0.434c1.321,0,2.238-0.39,2.752-1.169
	c0.289-0.44,0.442-1.067,0.46-1.882l-0.965-0.273C89.03,19.718,89.049,19.975,89.049,20.197z"/>
<path fill="#FFFFFF" d="M10.662,25.583v12.094H8.252v-9.47l-2.739,9.47H4.029l-2.721-9.319v9.319H0.411V25.583h2.505l2.598,8.949
	l2.624-8.949H10.662z"/>
<path fill="#FFFFFF" d="M19.563,34.837c0,0.603-0.126,1.102-0.378,1.497c-0.33,0.502-0.711,0.753-1.146,0.753
	c-0.716,0-1.074-0.641-1.074-1.921c0-0.75,0.17-1.325,0.511-1.727c0.164-0.195,0.563-0.448,1.198-0.761
	c0.358-0.184,0.655-0.411,0.89-0.683V34.837z M22.994,36.908c-0.248,0.072-0.44,0.107-0.576,0.107c-0.455,0-0.682-0.34-0.682-1.02
	v-5.513c0-0.608-0.266-1.085-0.795-1.431c-0.578-0.376-1.367-0.564-2.369-0.564c-1.014,0-1.812,0.197-2.395,0.59
	c-0.625,0.416-0.937,0.936-0.937,1.559c0,0.202,0.024,0.449,0.071,0.74l1.178,0.256c-0.14-0.475-0.209-0.834-0.209-1.075
	c0-0.271,0.07-0.521,0.211-0.749c0.153-0.234,0.363-0.424,0.63-0.564c0.267-0.142,0.557-0.212,0.868-0.212
	c0.47,0,0.841,0.121,1.111,0.363c0.323,0.283,0.485,0.699,0.485,1.248c0,0.479-0.195,0.853-0.585,1.124
	c-0.284,0.195-0.883,0.437-1.799,0.727c-0.815,0.254-1.392,0.53-1.728,0.831c-0.502,0.454-0.753,1.093-0.753,1.912
	c0,0.613,0.15,1.148,0.451,1.603c0.46,0.685,1.187,1.026,2.177,1.026c0.567,0,1.053-0.128,1.461-0.384
	c0.307-0.185,0.596-0.515,0.867-0.99c0.047,0.411,0.165,0.701,0.354,0.872c0.318,0.288,0.799,0.431,1.442,0.431
	c0.489,0,1.049-0.095,1.68-0.286L22.994,36.908z"/>
<path fill="#FFFFFF" d="M31.549,31.695h-1.621c0.09-0.355,0.152-0.592,0.187-0.709c0.096-0.361,0.144-0.658,0.144-0.892
	c0-0.151-0.048-0.277-0.145-0.376c-0.097-0.1-0.218-0.149-0.365-0.149c-0.316,0-0.597,0.259-0.843,0.772
	c-0.129,0.275-0.239,0.602-0.33,0.979s-0.136,0.7-0.136,0.97v5.381h-2.173v-8.929c0.169,0,0.293,0,0.369,0
	c0.516,0,1.117-0.076,1.804-0.229v1.896c0.249-0.57,0.494-0.979,0.736-1.226c0.426-0.434,0.893-0.652,1.402-0.652
	c0.254,0,0.486,0.069,0.696,0.208c0.21,0.138,0.365,0.322,0.466,0.551c0.083,0.182,0.125,0.396,0.125,0.644
	C31.865,30.355,31.759,30.943,31.549,31.695z"/>
<path fill="#FFFFFF" d="M42.032,28.752l-2.152,2.717l2.736,6.211h-2.329l-1.949-4.389l-0.815,1.027v3.361h-2.173V25.598
	c0.724-0.012,1.449-0.079,2.173-0.202v7.86l3.605-4.504H42.032z"/>
<path fill="#FFFFFF" d="M47.676,31.566c0.065-0.765,0.187-1.315,0.363-1.653c0.278-0.54,0.639-0.811,1.081-0.811
	c0.673,0,1.093,0.547,1.258,1.638c0.077,0.539,0.121,1.183,0.133,1.93h-2.896C47.639,32.125,47.658,31.757,47.676,31.566z
	 M51.63,35.314c0,0.551-0.175,1.02-0.523,1.405c-0.349,0.387-0.801,0.579-1.356,0.579c-0.963,0-1.589-0.456-1.879-1.371
	c-0.147-0.474-0.236-1.324-0.266-2.55h4.872c-0.006-1.215-0.118-2.126-0.337-2.73c-0.52-1.423-1.522-2.135-3.01-2.135
	c-1.056,0-1.952,0.422-2.689,1.266C45.68,30.64,45.3,31.863,45.3,33.45c0,1.146,0.224,2.065,0.673,2.761
	c0.336,0.525,0.796,0.934,1.38,1.222c0.585,0.289,1.243,0.434,1.974,0.434c1.322,0,2.239-0.39,2.753-1.169
	c0.289-0.44,0.442-1.067,0.46-1.883l-0.965-0.272C51.61,34.835,51.63,35.092,51.63,35.314z"/>
<path fill="#FFFFFF" d="M59.884,28.778v0.732h-1.181v6.782c0,0.471,0.145,0.705,0.435,0.705c0.226,0,0.35-0.152,0.373-0.457
	l0.612,0.045c-0.095,0.43-0.271,0.727-0.53,0.892c-0.306,0.2-0.703,0.3-1.191,0.3c-0.677,0-1.172-0.176-1.483-0.529
	c-0.259-0.301-0.388-0.687-0.388-1.158v-6.579h-0.922v-0.732h0.922v-1.542c0.557-0.177,0.917-0.307,1.082-0.39
	c0.182-0.07,0.545-0.271,1.091-0.602v2.533H59.884z"/>
<path fill="#FFFFFF" d="M64.864,25.583c0.367,0,0.651,0.098,0.851,0.293c0.175,0.176,0.263,0.394,0.263,0.652
	c0,0.313-0.12,0.557-0.359,0.733c-0.192,0.142-0.45,0.211-0.771,0.211c-0.362,0-0.64-0.094-0.833-0.281
	c-0.188-0.178-0.28-0.4-0.28-0.672c0-0.306,0.126-0.55,0.377-0.732C64.285,25.651,64.536,25.583,64.864,25.583z M63.78,37.677
	v-8.921c0.55-0.006,0.905-0.021,1.069-0.044c0.175-0.012,0.543-0.077,1.104-0.195v9.16H63.78z"/>
<path fill="#FFFFFF" d="M77.771,37.677h-2.149v-6.848c0-0.333-0.039-0.608-0.116-0.829c-0.114-0.314-0.395-0.472-0.842-0.472
	c-0.514,0-0.968,0.275-1.361,0.826c-0.197,0.284-0.36,0.603-0.488,0.958c-0.129,0.354-0.192,0.669-0.192,0.94v5.424h-2.173v-8.955
	c0.563,0,0.933-0.012,1.108-0.035c0.17-0.012,0.525-0.067,1.064-0.168v1.938c0.386-0.589,0.739-1.005,1.061-1.249
	c0.599-0.463,1.249-0.695,1.95-0.695c0.784,0,1.373,0.268,1.765,0.802c0.249,0.345,0.374,0.794,0.374,1.346V37.677z"/>
<path fill="#FFFFFF" d="M86.616,29.792c0.177,0.429,0.266,1.053,0.266,1.872c0,0.707-0.083,1.229-0.248,1.568
	c-0.207,0.429-0.569,0.642-1.088,0.642c-0.555,0-0.953-0.216-1.194-0.65c-0.172-0.303-0.256-0.841-0.256-1.612
	c0-0.791,0.069-1.353,0.211-1.685c0.248-0.564,0.641-0.848,1.177-0.848C86.044,29.079,86.421,29.317,86.616,29.792z M87.775,28.063
	c0.061,0,0.152,0.031,0.277,0.093c0.195,0.097,0.368,0.144,0.517,0.144c0.184,0,0.351-0.071,0.499-0.214
	c0.148-0.155,0.223-0.337,0.223-0.545c0-0.257-0.092-0.465-0.276-0.626c-0.214-0.179-0.469-0.269-0.766-0.269
	c-0.577,0-1.01,0.246-1.301,0.739c-0.155,0.256-0.231,0.55-0.231,0.882c0,0.113,0.012,0.257,0.038,0.428
	c-0.651-0.137-1.169-0.207-1.553-0.207c-0.792,0-1.526,0.262-2.2,0.783c-0.751,0.581-1.127,1.333-1.127,2.257
	c0,0.788,0.249,1.445,0.748,1.973c0.214,0.22,0.502,0.402,0.864,0.551c-1.248,0.726-1.872,1.494-1.872,2.303
	c0,0.39,0.201,0.711,0.603,0.964c0.225,0.142,0.609,0.257,1.154,0.346c-0.548,0.142-0.966,0.337-1.254,0.584
	c-0.288,0.248-0.433,0.544-0.433,0.887c0,0.284,0.116,0.554,0.35,0.811s0.554,0.468,0.961,0.634c0.52,0.206,1.281,0.31,2.284,0.31
	c0.614,0,1.201-0.041,1.762-0.123c0.721-0.112,1.363-0.368,1.931-0.77C89.657,39.507,90,38.885,90,38.131
	c0-0.389-0.11-0.75-0.329-1.083c-0.221-0.332-0.517-0.581-0.891-0.746c-0.54-0.248-1.147-0.372-1.823-0.372
	c-0.54,0-1.217,0.012-2.027,0.033c-0.326,0.009-0.567,0.014-0.722,0.014c-0.291,0-0.516-0.054-0.676-0.162
	c-0.16-0.109-0.24-0.262-0.24-0.455c0-0.358,0.311-0.715,0.931-1.068c0.667,0.133,1.195,0.197,1.586,0.197
	c0.633,0,1.253-0.167,1.862-0.503c1.018-0.572,1.525-1.369,1.525-2.389c0-0.743-0.284-1.412-0.853-2.008
	c-0.249-0.253-0.584-0.492-1.004-0.716C87.34,28.334,87.484,28.063,87.775,28.063z M87.238,37.967
	c0.612,0.142,0.919,0.437,0.919,0.885c0,0.431-0.239,0.791-0.716,1.081c-0.431,0.26-1.087,0.39-1.971,0.39
	c-0.677,0-1.201-0.074-1.572-0.222c-0.577-0.219-0.866-0.558-0.866-1.019c0-0.378,0.212-0.673,0.637-0.885
	c0.459-0.236,1.128-0.354,2.005-0.354C86.352,37.843,86.873,37.884,87.238,37.967z"/>
<path fill="#FFFFFF" d="M2.711,46.369h1.696v3.121c-0.454,0.244-0.943,0.345-1.46,0.345c-2.222,0-2.766-2.087-2.766-3.293
	c0-1.624,0.971-3.166,2.748-3.166c0.508,0,1.134,0.2,1.324,0.309l-0.027,0.617c-0.245-0.19-0.853-0.399-1.333-0.399
	c-0.907,0-2.113,0.689-2.113,2.694c0,1.161,0.526,2.712,2.195,2.712c0.327,0,0.581-0.036,0.871-0.19v-2.223H2.711V46.369z"/>
<path fill="#FFFFFF" d="M12.733,43.966h0.735c0.399,0,1.233,0.072,1.233,1.116c0,0.181-0.063,1.215-1.197,1.215h-0.771V43.966z
	 M12.171,49.771h0.562v-2.947h0.717c0.454,0,0.635,0.208,0.834,0.78l0.771,2.167h0.599l-0.953-2.621
	c-0.145-0.408-0.462-0.508-0.644-0.544v-0.019c0.535-0.1,1.242-0.453,1.242-1.532c0-0.926-0.571-1.615-1.669-1.615h-1.46V49.771z"/>
<path fill="#FFFFFF" d="M23.391,46.605c0-0.499,0-2.703,1.632-2.703c1.633,0,1.633,2.204,1.633,2.703s0,2.703-1.633,2.703
	C23.391,49.309,23.391,47.104,23.391,46.605z M22.792,46.605c0,0.554,0,3.229,2.231,3.229c2.231,0,2.231-2.676,2.231-3.229
	s0-3.229-2.231-3.229C22.792,43.376,22.792,46.052,22.792,46.605z"/>
<path fill="#FFFFFF" d="M34.792,43.439h0.563v3.991c0,0.952,0.181,1.878,1.315,1.878c1.188,0,1.315-1.025,1.315-1.878v-3.991h0.563
	v4c0,1.252-0.408,2.396-1.878,2.396c-1.469,0-1.877-1.034-1.877-2.396V43.439z"/>
<path fill="#FFFFFF" d="M46.909,43.966h0.489c0.527,0,1.471,0,1.471,1.261c0,0.979-0.554,1.261-1.389,1.261h-0.571V43.966z
	 M46.348,49.771h0.562v-2.757h0.79c0.815,0,1.768-0.417,1.768-1.787c0-1.278-0.744-1.787-1.932-1.787h-1.188V49.771z"/>
<path fill="#FFFFFF" d="M65.421,43.439h0.563v6.331h-0.563V43.439z"/>
<path fill="#FFFFFF" d="M73.783,43.439h0.726l2.657,5.624h0.019v-5.624h0.525v6.331h-0.726l-2.657-5.587h-0.019v5.587h-0.525V43.439
	z"/>
<path fill="#FFFFFF" d="M89.066,49.635c-0.173,0.063-0.554,0.2-1.08,0.2c-1.877,0-2.685-1.569-2.685-3.266
	c0-1.633,0.771-3.193,2.722-3.193c0.326,0,0.762,0.063,1.061,0.209l-0.027,0.635c-0.172-0.145-0.625-0.317-1.079-0.317
	c-0.444,0-2.077,0.209-2.077,2.685c0,2.204,1.343,2.722,2.068,2.722c0.48,0,0.726-0.118,1.07-0.281L89.066,49.635z"/>
</svg>
