<?xml version="1.0" encoding="utf-8"?>
<!-- Generator: Adobe Illustrator 16.0.0, SVG Export Plug-In . SVG Version: 6.00 Build 0)  -->
<!DOCTYPE svg PUBLIC "-//W3C//DTD SVG 1.1//EN" "http://www.w3.org/Graphics/SVG/1.1/DTD/svg11.dtd">
<svg version="1.1" id="Layer_1" xmlns="http://www.w3.org/2000/svg" xmlns:xlink="http://www.w3.org/1999/xlink" x="0px" y="0px"
	 width="80px" height="80px" viewBox="0 0 80 80" enable-background="new 0 0 80 80" xml:space="preserve">
<g>
	<g>
		<circle fill="#FFFFFF" cx="70.76" cy="28.79" r="1.533"/>
	</g>
</g>
<g>
	<g>
		<circle fill="#FFFFFF" cx="30.214" cy="37.692" r="1.533"/>
	</g>
</g>
<g>
	<g>
		<path fill="#FFFFFF" d="M74.683,12.403H62.76c-0.729-4.194-4.394-7.395-8.794-7.395s-8.064,3.2-8.794,7.395H33.248
			c-2.518,0-4.567,2.049-4.567,4.568v7.721h-8.533c0.845-1.188,1.343-2.637,1.343-4.201c0-4.007-3.26-7.268-7.267-7.268
			s-7.268,3.26-7.268,7.268c0,2.067,0.87,3.935,2.26,5.259c-4.97,2.047-8.466,6.841-8.466,12.415v11.42
			c0,3.471,2.699,6.338,6.156,6.705v14.896H3.071c-0.847,0-1.533,0.688-1.533,1.533s0.686,1.533,1.533,1.533h42.222
			c0.004,0,0.008,0.001,0.012,0.001s0.008-0.001,0.012-0.001h18.319c0.003,0,0.007,0.001,0.011,0.001s0.008-0.001,0.011-0.001H76.27
			c0.848,0,1.533-0.688,1.533-1.533s-0.686-1.533-1.533-1.533H64.75l-4.394-13.091h14.326c2.519,0,4.567-2.049,4.567-4.566V16.972
			C79.25,14.453,77.201,12.403,74.683,12.403z M53.966,8.075c2.702,0,4.982,1.837,5.658,4.328H48.307
			C48.982,9.913,51.264,8.075,53.966,8.075z M14.224,16.291c2.316,0,4.201,1.885,4.201,4.201c0,2.316-1.884,4.201-4.201,4.201
			c-2.317,0-4.201-1.885-4.201-4.201C10.022,18.175,11.907,16.291,14.224,16.291z M19.417,32.66v38.528h-3.189V53.951
			c0-0.847-0.687-1.533-1.533-1.533s-1.533,0.687-1.533,1.533v17.236H9.973V38.564c0-0.847-0.687-1.533-1.533-1.533
			s-1.533,0.686-1.533,1.533v14.629c-1.759-0.336-3.09-1.825-3.09-3.607v-11.42c0-5.738,4.835-10.407,10.779-10.407h28.176
			c-0.645,1.954-2.488,3.367-4.655,3.367H20.95C20.104,31.126,19.417,31.813,19.417,32.66z M61.515,71.187H47.436l4.395-13.09h5.292
			L61.515,71.187z M76.184,53.53c0,0.827-0.673,1.5-1.501,1.5c0,0-23.925,0-23.929,0H33.248c-0.828,0-1.5-0.673-1.5-1.5v-8.972
			c0-0.846-0.686-1.533-1.533-1.533s-1.533,0.688-1.533,1.533v8.972c0,2.518,2.049,4.566,4.567,4.566h15.348l-4.394,13.091H22.483
			V34.193h15.633c4.394,0,7.968-3.574,7.968-7.967c0-0.847-0.688-1.533-1.533-1.533H31.748v-7.721c0-0.828,0.673-1.501,1.5-1.501
			h41.435c0.828,0,1.501,0.673,1.501,1.501V53.53z"/>
	</g>
</g>
<g>
	<g>
		<path fill="#FFFFFF" d="M67.159,32.389c-0.6-0.598-1.57-0.598-2.168,0l-6.567,6.568l-2.396-2.396
			c-0.599-0.598-1.569-0.598-2.167,0l-8.467,8.465l-2.363-2.363c-0.288-0.288-0.679-0.45-1.085-0.45s-0.797,0.162-1.084,0.45
			l-4.398,4.398c-0.599,0.599-0.599,1.568,0,2.168c0.3,0.299,0.692,0.448,1.084,0.448c0.393,0,0.786-0.149,1.085-0.448l3.313-3.314
			l2.365,2.365c0.598,0.599,1.569,0.599,2.167,0l8.466-8.466l2.396,2.395c0.599,0.599,1.569,0.599,2.168,0l7.652-7.651
			C67.758,33.959,67.758,32.988,67.159,32.389z"/>
	</g>
</g>
</svg>
