<?xml version="1.0" encoding="utf-8"?>
<!-- Generator: Adobe Illustrator 16.0.0, SVG Export Plug-In . SVG Version: 6.00 Build 0)  -->
<!DOCTYPE svg PUBLIC "-//W3C//DTD SVG 1.1//EN" "http://www.w3.org/Graphics/SVG/1.1/DTD/svg11.dtd">
<svg version="1.1" id="Layer_1" xmlns="http://www.w3.org/2000/svg" xmlns:xlink="http://www.w3.org/1999/xlink" x="0px" y="0px"
	 width="80px" height="80px" viewBox="0 0 80 80" enable-background="new 0 0 80 80" xml:space="preserve">
<g>
	<g>
		<path fill="#FFFFFF" d="M72.425,30.121L72.425,30.121l-3.342-0.396c-0.363-1.029-0.783-2.041-1.254-3.025l2.084-2.643
			c2.04-2.588,2.034-6.084-0.013-8.132l-5.826-5.827c-2.049-2.048-5.545-2.053-8.132-0.013l-2.644,2.084
			c-0.984-0.471-1.996-0.89-3.025-1.254l-0.396-3.342c-0.387-3.273-2.863-5.741-5.759-5.741h-8.24c-2.896,0-5.373,2.468-5.758,5.741
			l-0.395,3.342c-1.029,0.364-2.041,0.783-3.025,1.254l-2.644-2.084c-2.588-2.041-6.083-2.036-8.131,0.012L10.1,15.925
			c-2.048,2.048-2.053,5.543-0.013,8.132l2.084,2.643c-0.471,0.984-0.89,1.997-1.254,3.025l-3.342,0.396
			c-3.273,0.387-5.741,2.862-5.741,5.759v8.24c0,2.896,2.468,5.372,5.741,5.759l3.342,0.396c0.364,1.029,0.783,2.041,1.254,3.025
			l-2.084,2.644c-2.041,2.587-2.036,6.083,0.013,8.132l5.827,5.826c2.047,2.047,5.543,2.053,8.131,0.013l2.643-2.084
			c0.985,0.472,1.998,0.891,3.026,1.254l0.395,3.342c0.386,3.273,2.862,5.741,5.758,5.741h8.24c2.896,0,5.372-2.467,5.759-5.74
			l0.396-3.343c1.029-0.363,2.042-0.782,3.027-1.254l2.643,2.084c2.588,2.04,6.084,2.034,8.132-0.013l5.826-5.826
			c2.048-2.049,2.054-5.545,0.013-8.132l-2.085-2.644c0.472-0.984,0.891-1.996,1.254-3.025l3.343-0.396
			c3.272-0.387,5.74-2.863,5.74-5.759v-8.24C78.166,32.983,75.698,30.508,72.425,30.121z M75.185,44.119
			c0,1.386-1.336,2.588-3.108,2.798l-4.28,0.506c-0.581,0.068-1.068,0.472-1.245,1.028c-0.475,1.493-1.08,2.954-1.801,4.344
			c-0.268,0.519-0.208,1.148,0.153,1.608l2.67,3.385c1.105,1.402,1.2,3.198,0.221,4.177l-5.828,5.827
			c-0.978,0.98-2.774,0.885-4.176-0.22l-3.386-2.669c-0.459-0.363-1.089-0.423-1.608-0.153c-1.39,0.72-2.852,1.325-4.345,1.801
			c-0.557,0.177-0.96,0.663-1.028,1.245l-0.505,4.279c-0.211,1.773-1.413,3.109-2.799,3.109h-8.24c-1.385,0-2.588-1.336-2.798-3.109
			l-0.506-4.279c-0.069-0.582-0.471-1.068-1.028-1.246c-1.491-0.475-2.952-1.08-4.342-1.8c-0.216-0.112-0.452-0.167-0.686-0.167
			c-0.328,0-0.654,0.107-0.923,0.32l-3.385,2.669c-1.402,1.104-3.197,1.2-4.177,0.22l-5.827-5.826
			c-0.979-0.979-0.885-2.775,0.221-4.178l2.669-3.385c0.362-0.46,0.422-1.089,0.153-1.608c-0.72-1.39-1.326-2.851-1.8-4.344
			c-0.177-0.557-0.664-0.96-1.245-1.028l-4.279-0.506c-1.773-0.21-3.109-1.412-3.109-2.798v-8.24c0-1.385,1.336-2.588,3.109-2.797
			l4.28-0.506c0.581-0.069,1.068-0.471,1.246-1.028c0.474-1.492,1.08-2.953,1.8-4.343c0.269-0.52,0.209-1.149-0.153-1.609
			l-2.668-3.386c-1.106-1.401-1.2-3.197-0.221-4.177l5.826-5.827c0.98-0.979,2.775-0.885,4.177,0.221l3.385,2.669
			c0.46,0.362,1.09,0.423,1.609,0.153c1.389-0.719,2.85-1.325,4.341-1.8c0.557-0.177,0.959-0.665,1.028-1.245l0.506-4.28
			c0.209-1.773,1.412-3.109,2.798-3.109h8.24c1.385,0,2.588,1.336,2.798,3.109l0.506,4.279c0.068,0.581,0.472,1.068,1.028,1.246
			c1.492,0.474,2.954,1.08,4.344,1.8c0.519,0.27,1.148,0.209,1.608-0.153l3.385-2.669c1.402-1.105,3.198-1.2,4.178-0.221
			l5.826,5.827c0.98,0.979,0.885,2.775-0.22,4.177l-2.669,3.385c-0.363,0.46-0.423,1.089-0.153,1.609
			c0.72,1.389,1.325,2.85,1.801,4.342c0.177,0.558,0.663,0.96,1.245,1.028l4.279,0.506l0,0c1.773,0.209,3.109,1.412,3.109,2.798
			V44.119z"/>
	</g>
</g>
<g>
	<g>
		<path fill="#FFFFFF" d="M40,25.038c-8.25,0-14.962,6.712-14.962,14.962S31.75,54.962,40,54.962S54.962,48.25,54.962,40
			S48.25,25.038,40,25.038z M40,51.98c-6.606,0-11.98-5.374-11.98-11.98c0-6.606,5.374-11.98,11.98-11.98S51.98,33.394,51.98,40
			C51.98,46.606,46.606,51.98,40,51.98z"/>
	</g>
</g>
<g>
	<g>
		<path fill="#FFFFFF" d="M61.528,38.509c-0.824,0-1.491,0.668-1.491,1.491c0,8.828-5.657,16.517-14.077,19.136
			c-0.786,0.245-1.226,1.081-0.98,1.867c0.198,0.639,0.786,1.048,1.423,1.048c0.146,0,0.296-0.021,0.442-0.067
			c4.589-1.428,8.709-4.343,11.602-8.21C61.437,49.772,63.02,45.01,63.02,40C63.02,39.177,62.352,38.509,61.528,38.509z"/>
	</g>
</g>
<g>
	<g>
		<circle fill="#FFFFFF" cx="39.694" cy="61.206" r="1.491"/>
	</g>
</g>
</svg>
