<?xml version="1.0" encoding="utf-8"?>
<!-- Generator: Adobe Illustrator 16.0.0, SVG Export Plug-In . SVG Version: 6.00 Build 0)  -->
<!DOCTYPE svg PUBLIC "-//W3C//DTD SVG 1.1//EN" "http://www.w3.org/Graphics/SVG/1.1/DTD/svg11.dtd">
<svg version="1.1" id="Layer_1" xmlns="http://www.w3.org/2000/svg" xmlns:xlink="http://www.w3.org/1999/xlink" x="0px" y="0px"
	 width="80px" height="80px" viewBox="0 0 80 80" enable-background="new 0 0 80 80" xml:space="preserve">
<g>
	<g>
		<path fill="#FFFFFF" d="M76.743,12.816l-5.195-4.379c-0.277-0.233-0.626-0.361-0.988-0.361H46.937V4.893
			c0-2.285-1.858-4.143-4.143-4.143h-5.975c-2.285,0-4.143,1.858-4.143,4.144v3.183h-8.141c-0.847,0-1.533,0.687-1.533,1.533v12.21
			c0,0.847,0.687,1.533,1.533,1.533h8.141v4.615H9.005c-0.361,0-0.711,0.128-0.988,0.361l-5.196,4.379
			c-0.856,0.722-1.348,1.778-1.348,2.899c0,1.119,0.491,2.175,1.348,2.897l5.196,4.38c0.276,0.232,0.626,0.36,0.988,0.36h23.671
			v32.938h-6.257c-0.847,0-1.533,0.687-1.533,1.533s0.686,1.533,1.533,1.533h26.773c0.847,0,1.533-0.687,1.533-1.533
			s-0.687-1.533-1.533-1.533h-6.256V54.556c0-0.847-0.687-1.533-1.533-1.533s-1.533,0.687-1.533,1.533v21.628h-8.127V43.245H55.03
			c0.847,0,1.533-0.687,1.533-1.533v-12.21c0-0.847-0.687-1.533-1.533-1.533h-8.094v-4.615H70.56c0.362,0,0.712-0.128,0.989-0.361
			l5.194-4.379c0.856-0.722,1.349-1.778,1.349-2.898S77.601,13.539,76.743,12.816z M35.743,4.894L35.743,4.894
			c0-0.594,0.483-1.077,1.077-1.077h5.974c0.593,0,1.076,0.483,1.076,1.077v3.183h-8.127V4.894z M53.497,31.035v9.144H9.565
			L4.798,36.16c-0.224-0.188-0.257-0.428-0.257-0.553c0-0.126,0.034-0.366,0.257-0.554l4.768-4.019H53.497z M35.743,27.968v-4.615
			h8.127v4.615H35.743z M74.768,16.269L70,20.287H34.363c-0.05-0.005-0.102-0.007-0.153-0.007s-0.104,0.002-0.155,0.007h-7.986
			v-9.144H70l4.769,4.019c0.223,0.189,0.257,0.428,0.257,0.553C75.025,15.84,74.991,16.08,74.768,16.269z"/>
	</g>
</g>
<g>
	<g>
		<circle fill="#FFFFFF" cx="39.806" cy="15.492" r="1.533"/>
	</g>
</g>
<g>
	<g>
		<circle fill="#FFFFFF" cx="39.806" cy="35.606" r="1.533"/>
	</g>
</g>
<g>
	<g>
		<circle fill="#FFFFFF" cx="45.403" cy="47.771" r="1.533"/>
	</g>
</g>
</svg>
