<?xml version="1.0" encoding="utf-8"?>
<!-- Generator: Adobe Illustrator 16.0.0, SVG Export Plug-In . SVG Version: 6.00 Build 0)  -->
<!DOCTYPE svg PUBLIC "-//W3C//DTD SVG 1.1//EN" "http://www.w3.org/Graphics/SVG/1.1/DTD/svg11.dtd">
<svg version="1.1" id="Layer_1" xmlns="http://www.w3.org/2000/svg" xmlns:xlink="http://www.w3.org/1999/xlink" x="0px" y="0px"
	 width="80px" height="80px" viewBox="0 0 80 80" enable-background="new 0 0 80 80" xml:space="preserve">
<path fill="#FFFFFF" d="M79.332,31.443c0-13.855-10.52-25.35-24.166-26.684c-0.494-1.697-2.061-2.942-3.916-2.942H28.749
	c-1.854,0-3.42,1.245-3.915,2.942C11.188,6.095,0.667,17.59,0.667,31.443v21.411c0,4.547,3.699,8.245,8.246,8.245h6.418
	c1.911,0,3.465-1.554,3.465-3.464V34.883c0-1.91-1.554-3.464-3.465-3.464H8.912c-2.043,0-3.914,0.749-5.356,1.984v-1.96
	c0-12.343,9.36-22.588,21.509-23.803c0.655,1.379,2.058,2.338,3.684,2.338H51.25c1.627,0,3.029-0.958,3.684-2.338
	c12.15,1.214,21.51,11.458,21.51,23.803v1.959c-1.443-1.234-3.313-1.983-5.355-1.983h-6.42c-1.908,0-3.463,1.554-3.463,3.464v22.751
	c0,1.911,1.555,3.465,3.463,3.465h6.42c2.043,0,3.914-0.749,5.355-1.983v1.052c0,5.459-4.441,9.901-9.9,9.901H49.035
	c-0.635-2.277-2.725-3.953-5.201-3.953h-5.27c-2.976,0-5.398,2.421-5.398,5.397s2.422,5.397,5.398,5.397h5.27
	c2.477,0,4.566-1.676,5.201-3.952h17.508c7.053,0,12.791-5.738,12.791-12.791L79.332,31.443L79.332,31.443z M15.906,34.883v22.751
	c0,0.317-0.258,0.575-0.575,0.575h-0.575v-23.9h0.575C15.648,34.309,15.906,34.566,15.906,34.883z M8.912,34.309h2.954v23.9H8.912
	c-2.954,0-5.356-2.402-5.356-5.355V39.665C3.556,36.711,5.958,34.309,8.912,34.309z M51.25,7.087H28.749
	c-0.657,0-1.19-0.534-1.19-1.19c0-0.656,0.534-1.19,1.19-1.19H51.25c0.656,0,1.191,0.534,1.191,1.19
	C52.441,6.554,51.906,7.087,51.25,7.087z M64.094,57.634V34.883c0-0.317,0.258-0.574,0.574-0.574h0.576v23.9h-0.576
	C64.352,58.209,64.094,57.951,64.094,57.634z M43.834,74.021h-5.27c-1.383,0-2.507-1.125-2.507-2.508s1.125-2.508,2.507-2.508h5.27
	c1.385,0,2.508,1.125,2.508,2.508S45.219,74.021,43.834,74.021z M71.088,58.209h-2.955v-23.9h2.955c2.953,0,5.355,2.403,5.355,5.356
	v13.189C76.443,55.807,74.041,58.209,71.088,58.209z"/>
</svg>
